<svg width="67" height="18" viewBox="0 0 67 18" fill="none" xmlns="http://www.w3.org/2000/svg">
<path d="M1.97656 17V1.29492H5.30664V14.25H11.6768V17H1.97656ZM29.5509 9.12598C29.5509 10.3363 29.4005 11.4391 29.0997 12.4346C28.7989 13.4229 28.3406 14.2751 27.7247 14.9912C27.116 15.7074 26.3426 16.2588 25.4044 16.6455C24.4663 17.0251 23.3562 17.2148 22.0743 17.2148C20.7924 17.2148 19.6824 17.0251 18.7443 16.6455C17.8061 16.2588 17.0291 15.7074 16.4132 14.9912C15.8045 14.2751 15.3497 13.4193 15.0489 12.4238C14.7482 11.4284 14.5978 10.3219 14.5978 9.10449C14.5978 7.47884 14.8627 6.06445 15.3927 4.86133C15.9298 3.65104 16.7534 2.71289 17.8634 2.04688C18.9734 1.38086 20.3842 1.04785 22.0958 1.04785C23.8002 1.04785 25.2003 1.38086 26.296 2.04688C27.3989 2.71289 28.2153 3.65104 28.7452 4.86133C29.2823 6.07161 29.5509 7.49316 29.5509 9.12598ZM18.089 9.12598C18.089 10.2217 18.2251 11.167 18.4972 11.9619C18.7765 12.7497 19.2098 13.3584 19.797 13.7881C20.3842 14.2106 21.1433 14.4219 22.0743 14.4219C23.0196 14.4219 23.7859 14.2106 24.3732 13.7881C24.9604 13.3584 25.3865 12.7497 25.6515 11.9619C25.9236 11.167 26.0597 10.2217 26.0597 9.12598C26.0597 7.47884 25.7517 6.18262 25.1359 5.2373C24.52 4.29199 23.5066 3.81934 22.0958 3.81934C21.1577 3.81934 20.3914 4.03418 19.797 4.46387C19.2098 4.88639 18.7765 5.49512 18.4972 6.29004C18.2251 7.0778 18.089 8.02311 18.089 9.12598ZM39.6477 8.18066H45.8782V16.3232C45.0546 16.5954 44.1988 16.8138 43.3108 16.9785C42.4228 17.1361 41.4166 17.2148 40.2922 17.2148C38.731 17.2148 37.4062 16.9069 36.3176 16.291C35.2291 15.6751 34.4019 14.7656 33.8362 13.5625C33.2704 12.3594 32.9875 10.8805 32.9875 9.12598C32.9875 7.47884 33.3026 6.05371 33.9329 4.85059C34.5702 3.64746 35.4976 2.71647 36.7151 2.05762C37.9397 1.39876 39.4329 1.06934 41.1946 1.06934C42.0253 1.06934 42.8453 1.15885 43.6545 1.33789C44.4638 1.51693 45.1978 1.74967 45.8567 2.03613L44.7502 4.7002C44.2704 4.45671 43.7226 4.2526 43.1067 4.08789C42.4908 3.92318 41.8463 3.84082 41.1731 3.84082C40.2063 3.84082 39.3648 4.06283 38.6487 4.50684C37.9397 4.95085 37.3883 5.57389 36.9944 6.37598C36.6077 7.1709 36.4143 8.10905 36.4143 9.19043C36.4143 10.2145 36.5539 11.124 36.8332 11.9189C37.1125 12.7067 37.553 13.3262 38.1545 13.7773C38.7561 14.2214 39.5403 14.4434 40.5071 14.4434C40.9797 14.4434 41.3772 14.4219 41.6995 14.3789C42.0289 14.3288 42.3368 14.2786 42.6233 14.2285V10.9521H39.6477V8.18066ZM64.7621 9.12598C64.7621 10.3363 64.6117 11.4391 64.3109 12.4346C64.0101 13.4229 63.5518 14.2751 62.9359 14.9912C62.3272 15.7074 61.5537 16.2588 60.6156 16.6455C59.6774 17.0251 58.5674 17.2148 57.2855 17.2148C56.0036 17.2148 54.8936 17.0251 53.9554 16.6455C53.0173 16.2588 52.2403 15.7074 51.6244 14.9912C51.0157 14.2751 50.5609 13.4193 50.2601 12.4238C49.9593 11.4284 49.8089 10.3219 49.8089 9.10449C49.8089 7.47884 50.0739 6.06445 50.6039 4.86133C51.141 3.65104 51.9645 2.71289 53.0746 2.04688C54.1846 1.38086 55.5954 1.04785 57.307 1.04785C59.0114 1.04785 60.4115 1.38086 61.5072 2.04688C62.6101 2.71289 63.4265 3.65104 63.9564 4.86133C64.4935 6.07161 64.7621 7.49316 64.7621 9.12598ZM53.3002 9.12598C53.3002 10.2217 53.4362 11.167 53.7084 11.9619C53.9877 12.7497 54.4209 13.3584 55.0082 13.7881C55.5954 14.2106 56.3545 14.4219 57.2855 14.4219C58.2308 14.4219 58.9971 14.2106 59.5843 13.7881C60.1716 13.3584 60.5977 12.7497 60.8627 11.9619C61.1348 11.167 61.2709 10.2217 61.2709 9.12598C61.2709 7.47884 60.9629 6.18262 60.347 5.2373C59.7311 4.29199 58.7178 3.81934 57.307 3.81934C56.3688 3.81934 55.6026 4.03418 55.0082 4.46387C54.4209 4.88639 53.9877 5.49512 53.7084 6.29004C53.4362 7.0778 53.3002 8.02311 53.3002 9.12598Z" fill="black"/>
</svg>
